<?xml version="1.0" encoding="UTF-8" standalone="no"?>
<!-- Created with Inkscape (http://www.inkscape.org/) -->

<svg
   xmlns:dc="http://purl.org/dc/elements/1.1/"
   xmlns:cc="http://creativecommons.org/ns#"
   xmlns:rdf="http://www.w3.org/1999/02/22-rdf-syntax-ns#"
   xmlns:svg="http://www.w3.org/2000/svg"
   xmlns="http://www.w3.org/2000/svg"
   xmlns:xlink="http://www.w3.org/1999/xlink"
   xmlns:sodipodi="http://sodipodi.sourceforge.net/DTD/sodipodi-0.dtd"
   xmlns:inkscape="http://www.inkscape.org/namespaces/inkscape"
   width="48"
   height="48"
   viewBox="0 0 12.7 12.7"
   version="1.1"
   id="svg245"
   inkscape:version="0.92.1 r"
   sodipodi:docname="ic_launcher.svg">
  <defs
     id="defs239">
    <linearGradient
       inkscape:collect="always"
       xlink:href="#linearGradient4275"
       id="linearGradient4281"
       x1="192.34772"
       y1="132.69568"
       x2="425.73901"
       y2="366.08698"
       gradientUnits="userSpaceOnUse"
       gradientTransform="matrix(0.09426229,0,0,0.09426229,-0.13113815,0.49175432)" />
    <linearGradient
       inkscape:collect="always"
       id="linearGradient4275">
      <stop
         style="stop-color:#000000;stop-opacity:0.25098041"
         offset="0"
         id="stop4277" />
      <stop
         style="stop-color:#000000;stop-opacity:0;"
         offset="1"
         id="stop4279" />
    </linearGradient>
  </defs>
  <sodipodi:namedview
     id="base"
     pagecolor="#ff00ff"
     bordercolor="#666666"
     borderopacity="1.0"
     inkscape:pageopacity="0"
     inkscape:pageshadow="2"
     inkscape:zoom="15.839192"
     inkscape:cx="29.78484"
     inkscape:cy="5.2290082"
     inkscape:document-units="px"
     inkscape:current-layer="layer1"
     showgrid="true"
     units="px"
     inkscape:snap-midpoints="true"
     inkscape:snap-smooth-nodes="true"
     inkscape:snap-intersection-paths="true"
     inkscape:object-paths="true">
    <inkscape:grid
       type="xygrid"
       id="grid247"
       empspacing="4" />
  </sodipodi:namedview>
  <metadata
     id="metadata242">
    <rdf:RDF>
      <cc:Work
         rdf:about="">
        <dc:format>image/svg+xml</dc:format>
        <dc:type
           rdf:resource="http://purl.org/dc/dcmitype/StillImage" />
        <dc:title />
      </cc:Work>
    </rdf:RDF>
  </metadata>
  <g
     inkscape:label="Layer 1"
     inkscape:groupmode="layer"
     id="layer1"
     transform="translate(0,-284.29998)">
    <path
       style="color:#000000;display:inline;overflow:visible;visibility:visible;opacity:1;fill:#795548;fill-opacity:1;fill-rule:nonzero;stroke:none;stroke-width:7.99999952;stroke-linejoin:miter;stroke-miterlimit:4;stroke-dasharray:none;stroke-dashoffset:0;stroke-opacity:1;marker:none;enable-background:accumulate"
       d="M 8 2 C 5 2 2 5 2 8 L 2 40 C 2 43 5 46 8 46 L 40 46 C 43 46 46 43 46 40 L 46 8 C 46 5 43 2 40 2 L 8 2 z "
       transform="matrix(0.26458333,0,0,0.26458333,0,284.29998)"
       id="rect3753" />
    <path
       style="display:inline;opacity:1;fill:url(#linearGradient4281);fill-opacity:1;stroke:none;stroke-width:0.99999994;stroke-opacity:1"
       d="M 32 8 L 30 12 L 23 14 L 19 10 L 9 12 L 9 39 L 16 46 L 40 46 C 43 46 46 43 46 40 L 46 19 L 39 12 L 36 12 L 32 8 z "
       transform="matrix(0.26458333,0,0,0.26458333,0,284.29998)"
       id="rect4162" />
    <path
       style="display:inline;opacity:1;fill:#ffffff;fill-opacity:1;stroke:none;stroke-width:0.99999994"
       d="M 28 8 L 28 12 L 22 12 L 22 15 L 28 15 L 28 19 L 21 19 L 21 22 L 33 22 L 33 25 L 20 25 L 20 28 L 33 28 L 33 35 C 33 36 33 37 32 37 L 27 37 L 28 40 C 34 40 35 40 36 39 C 37 38 37 37 37 35 L 37 28 L 41 28 L 41 25 L 37 25 L 37 22 L 40 22 L 40 19 L 32 19 L 32 15 L 39 15 L 39 12 L 32 12 L 32 8 L 28 8 z M 9 10 L 9 39 L 12 39 L 12 37 L 19 37 L 19 10 L 9 10 z M 12 13 L 16 13 L 16 22 L 12 22 L 12 13 z M 12 25 L 16 25 L 16 34 L 12 34 L 12 25 z M 24 29 L 22 31 C 24 32 26 34 27 36 L 29 34 C 28 32 26 30 24 29 z "
       transform="matrix(0.26458333,0,0,0.26458333,0,284.29998)"
       id="path4326-9" />
  </g>
</svg>
